<?xml version="1.0" encoding="UTF-8"?><svg xmlns="http://www.w3.org/2000/svg" xmlns:xlink="http://www.w3.org/1999/xlink" height="252.5" preserveAspectRatio="xMidYMid meet" version="1.0" viewBox="86.3 86.3 252.5 252.5" width="252.5" zoomAndPan="magnify"><g><g id="change1_1"><path d="M338.87,212.6c0,56.26-36.78,103.92-87.61,120.23c-3.27,1.06-6.59,1.98-9.97,2.77 c-0.6,0.14-1.21,0.28-1.81,0.41c-0.64,0.14-1.29,0.27-1.94,0.4c-0.52,0.1-1.03,0.2-1.55,0.3c-7.58,1.42-15.4,2.16-23.39,2.16 c-69.74,0-126.27-56.53-126.27-126.27S142.86,86.33,212.6,86.33c45.27,0,84.97,23.81,107.25,59.6c0.74,1.19,1.46,2.39,2.16,3.61 c2.4,4.14,4.56,8.43,6.48,12.85c1.17,2.7,2.25,5.44,3.23,8.24c1.98,5.6,3.56,11.37,4.73,17.29 C338.04,195.9,338.87,204.16,338.87,212.6z" fill="#5560a9"/></g><g id="change2_1"><path d="M338.87,212.6c0,56.26-36.78,103.92-87.61,120.23c-3.27,1.06-6.59,1.98-9.97,2.77 c-0.6,0.14-1.21,0.28-1.81,0.41l-94.88-39.15l132.17-168.52l45.24,21.2c2.4,4.14,4.56,8.43,6.48,12.85 c1.17,2.7,2.25,5.44,3.23,8.24c1.98,5.6,3.56,11.37,4.73,17.29C338.04,195.9,338.87,204.16,338.87,212.6z" fill="#3c3f7e"/></g><g id="change3_1"><path d="M263.49,208.15H158.44c-1.25,0-2.36-0.77-2.8-1.94l-3.12-8.22c-0.47-1.23-1.64-2.04-2.95-2.04H124.2 c-2.03,0-3.54,1.9-3.08,3.88l22.64,97.03h140.43L263.49,208.15z" fill="#fdc93b"/></g><g id="change4_1"><path d="M150.91 128.34H276.77V287.53999999999996H150.91z" fill="#fff"/></g><g id="change5_1"><path d="M163.3 143.66H199.87V183.62H163.3z" fill="#c8c8c8"/></g><g id="change6_1"><path d="M209.67 143.66H264.33V147.81H209.67z" fill="#e2e1e1"/></g><g id="change6_2"><path d="M209.67 155.35H264.33V159.5H209.67z" fill="#e2e1e1"/></g><g id="change6_3"><path d="M209.67 167.03H264.33V171.18H209.67z" fill="#e2e1e1"/></g><g id="change6_4"><path d="M209.67 178.72H264.33V182.87H209.67z" fill="#e2e1e1"/></g><g id="change6_5"><path d="M163.3 190.4H264.33000000000004V194.55H163.3z" fill="#e2e1e1"/></g><g id="change6_6"><path d="M163.3 202.09H264.33000000000004V206.24H163.3z" fill="#e2e1e1"/></g><g id="change6_7"><path d="M163.3 213.78H264.33000000000004V217.93H163.3z" fill="#e2e1e1"/></g><g id="change6_8"><path d="M163.3 225.46H264.33000000000004V229.61H163.3z" fill="#e2e1e1"/></g><g id="change6_9"><path d="M163.3 237.15H264.33000000000004V241.3H163.3z" fill="#e2e1e1"/></g><g id="change6_10"><path d="M163.3 248.83H264.33000000000004V252.98000000000002H163.3z" fill="#e2e1e1"/></g><g id="change6_11"><path d="M163.3 260.52H264.33000000000004V264.66999999999996H163.3z" fill="#e2e1e1"/></g><g id="change6_12"><path d="M163.3 272.21H264.33000000000004V276.35999999999996H163.3z" fill="#e2e1e1"/></g><g id="change7_1"><path d="M204.73,208.15l2.19-6.35c0.99-2.86-1.14-5.84-4.17-5.84h-31.11c-2.05,0-3.83,1.41-4.29,3.4l-22.75,97.5 h140.43L304,215.56c0.88-3.79-1.99-7.41-5.88-7.41H204.73z" fill="#f7a739"/></g></g></svg>